<svg xmlns="http://www.w3.org/2000/svg" viewBox="0 0 1422 800" opacity=".51"><g stroke-width="3.5" stroke="hsl(0, 0%, 0%)" fill="none" stroke-linecap="round"><path opacity=".76" d="M54 0L0 54"/><path opacity=".83" d="M54 0L108 54"/><path opacity=".87" d="M108 0L162 54"/><path opacity=".68" d="M162 0L216 54"/><path opacity=".72" d="M216 0L270 54"/><path opacity=".75" d="M324 0L270 54"/><path opacity=".45" d="M324 0L378 54"/><path opacity=".9" d="M378 0L432 54"/><path opacity=".91" d="M486 0L432 54"/><path opacity=".63" d="M540 0L486 54"/><path opacity=".89" d="M594 0L540 54"/><path opacity=".78" d="M594 0L648 54"/><path opacity=".22" d="M702 0L648 54"/><path opacity=".98" d="M702 0L756 54"/><path opacity=".1" d="M756 0L810 54"/><path opacity=".84" d="M810 0L864 54"/><path opacity=".23" d="M864 0L918 54"/><path opacity=".73" d="M918 0L972 54"/><path opacity=".74" d="M972 0L1026 54"/><path opacity=".08" d="M1026 0L1080 54"/><path opacity=".48" d="M1134 0L1080 54"/><path opacity=".4" d="M1134 0L1188 54"/><path opacity=".4" d="M1242 0L1188 54"/><path opacity=".71" d="M1296 0L1242 54"/><path opacity=".47" d="M1350 0L1296 54"/><path opacity=".53" d="M1350 0L1404 54"/><path opacity=".64" d="M1458 0L1404 54"/><path opacity=".66" d="M54 54L0 108"/><path opacity=".82" d="M108 54L54 108"/><path opacity=".26" d="M162 54L108 108"/><path opacity=".9" d="M162 54L216 108"/><path opacity=".27" d="M270 54L216 108"/><path opacity=".67" d="M270 54L324 108"/><path opacity=".36" d="M324 54L378 108"/><path opacity=".44" d="M378 54L432 108"/><path opacity=".53" d="M486 54L432 108"/><path opacity=".63" d="M486 54L540 108"/><path opacity=".49" d="M540 54L594 108"/><path opacity=".68" d="M594 54L648 108"/><path opacity=".8" d="M702 54L648 108"/><path d="M756 54L702 108"/><path opacity=".31" d="M810 54L756 108"/><path opacity=".2" d="M864 54L810 108"/><path opacity=".46" d="M918 54L864 108"/><path opacity=".89" d="M972 54L918 108"/><path opacity=".33" d="M1026 54L972 108"/><path opacity=".32" d="M1026 54L1080 108"/><path opacity=".45" d="M1080 54L1134 108"/><path opacity=".94" d="M1134 54L1188 108"/><path opacity=".9" d="M1188 54L1242 108"/><path opacity=".92" d="M1242 54L1296 108"/><path opacity=".79" d="M1296 54L1350 108"/><path opacity=".48" d="M1350 54L1404 108"/><path opacity=".55" d="M1404 54L1458 108"/><path opacity=".84" d="M0 108L54 162"/><path opacity=".7" d="M54 108L108 162"/><path opacity=".93" d="M108 108L162 162"/><path opacity=".49" d="M162 108L216 162"/><path opacity=".59" d="M216 108L270 162"/><path opacity=".48" d="M270 108L324 162"/><path opacity=".37" d="M378 108L324 162"/><path opacity=".41" d="M432 108L378 162"/><path opacity=".37" d="M486 108L432 162"/><path opacity=".29" d="M540 108L486 162"/><path opacity=".59" d="M540 108L594 162"/><path opacity=".12" d="M594 108L648 162"/><path opacity=".51" d="M702 108L648 162"/><path opacity=".9" d="M756 108L702 162"/><path opacity=".31" d="M756 108L810 162"/><path opacity=".28" d="M864 108L810 162"/><path opacity=".46" d="M918 108L864 162"/><path opacity=".54" d="M918 108L972 162"/><path opacity=".24" d="M972 108L1026 162"/><path opacity=".34" d="M1080 108L1026 162"/><path opacity=".91" d="M1080 108L1134 162"/><path opacity=".62" d="M1188 108L1134 162"/><path opacity=".37" d="M1188 108L1242 162"/><path opacity=".9" d="M1296 108L1242 162"/><path opacity=".67" d="M1350 108L1296 162"/><path opacity=".45" d="M1404 108L1350 162"/><path opacity=".84" d="M1458 108L1404 162"/><path opacity=".15" d="M54 162L0 216"/><path opacity=".39" d="M54 162L108 216"/><path opacity=".89" d="M108 162L162 216"/><path opacity=".81" d="M216 162L162 216"/><path opacity=".19" d="M216 162L270 216"/><path opacity=".25" d="M324 162L270 216"/><path opacity=".28" d="M378 162L324 216"/><path opacity=".83" d="M378 162L432 216"/><path opacity=".59" d="M432 162L486 216"/><path opacity=".22" d="M540 162L486 216"/><path opacity=".94" d="M594 162L540 216"/><path opacity=".72" d="M648 162L594 216"/><path opacity=".57" d="M702 162L648 216"/><path opacity=".12" d="M756 162L702 216"/><path opacity=".14" d="M756 162L810 216"/><path opacity=".57" d="M864 162L810 216"/><path opacity=".25" d="M864 162L918 216"/><path opacity=".16" d="M918 162L972 216"/><path opacity=".96" d="M1026 162L972 216"/><path opacity=".65" d="M1026 162L1080 216"/><path opacity=".22" d="M1080 162L1134 216"/><path opacity=".98" d="M1134 162L1188 216"/><path opacity=".08" d="M1242 162L1188 216"/><path opacity=".81" d="M1242 162L1296 216"/><path opacity=".71" d="M1296 162L1350 216"/><path opacity=".18" d="M1350 162L1404 216"/><path opacity=".11" d="M1458 162L1404 216"/><path opacity=".5" d="M54 216L0 270"/><path opacity=".74" d="M108 216L54 270"/><path opacity=".63" d="M108 216L162 270"/><path opacity=".57" d="M216 216L162 270"/><path opacity=".98" d="M270 216L216 270"/><path opacity=".92" d="M324 216L270 270"/><path opacity=".68" d="M378 216L324 270"/><path opacity=".2" d="M432 216L378 270"/><path opacity=".91" d="M432 216L486 270"/><path opacity=".75" d="M486 216L540 270"/><path opacity=".2" d="M594 216L540 270"/><path opacity=".3" d="M648 216L594 270"/><path opacity=".95" d="M648 216L702 270"/><path opacity=".59" d="M756 216L702 270"/><path opacity=".09" d="M756 216L810 270"/><path opacity=".75" d="M810 216L864 270"/><path opacity=".71" d="M864 216L918 270"/><path opacity=".68" d="M918 216L972 270"/><path opacity=".59" d="M972 216L1026 270"/><path opacity=".7" d="M1080 216L1026 270"/><path opacity=".15" d="M1134 216L1080 270"/><path opacity=".15" d="M1134 216L1188 270"/><path opacity=".61" d="M1242 216L1188 270"/><path opacity=".7" d="M1296 216L1242 270"/><path opacity=".54" d="M1296 216L1350 270"/><path opacity=".73" d="M1350 216L1404 270"/><path opacity=".71" d="M1458 216L1404 270"/><path opacity=".79" d="M54 270L0 324"/><path opacity=".44" d="M54 270L108 324"/><path opacity=".55" d="M108 270L162 324"/><path opacity=".59" d="M162 270L216 324"/><path opacity=".16" d="M216 270L270 324"/><path opacity=".38" d="M270 270L324 324"/><path opacity=".6" d="M324 270L378 324"/><path opacity=".91" d="M432 270L378 324"/><path opacity=".53" d="M486 270L432 324"/><path opacity=".68" d="M540 270L486 324"/><path opacity=".63" d="M594 270L540 324"/><path opacity=".1" d="M594 270L648 324"/><path opacity=".46" d="M648 270L702 324"/><path opacity=".49" d="M756 270L702 324"/><path opacity=".6" d="M810 270L756 324"/><path opacity=".17" d="M864 270L810 324"/><path opacity=".77" d="M864 270L918 324"/><path opacity=".94" d="M972 270L918 324"/><path opacity=".23" d="M1026 270L972 324"/><path opacity=".9" d="M1026 270L1080 324"/><path opacity=".69" d="M1080 270L1134 324"/><path opacity=".76" d="M1134 270L1188 324"/><path opacity=".12" d="M1188 270L1242 324"/><path opacity=".57" d="M1242 270L1296 324"/><path opacity=".21" d="M1350 270L1296 324"/><path opacity=".4" d="M1404 270L1350 324"/><path opacity=".65" d="M1404 270L1458 324"/><path opacity=".93" d="M54 324L0 378"/><path opacity=".61" d="M54 324L108 378"/><path opacity=".64" d="M162 324L108 378"/><path opacity=".08" d="M216 324L162 378"/><path opacity=".49" d="M270 324L216 378"/><path opacity=".45" d="M324 324L270 378"/><path opacity=".32" d="M378 324L324 378"/><path opacity=".87" d="M378 324L432 378"/><path opacity=".73" d="M486 324L432 378"/><path opacity=".88" d="M540 324L486 378"/><path opacity=".24" d="M540 324L594 378"/><path opacity=".7" d="M594 324L648 378"/><path opacity=".72" d="M648 324L702 378"/><path opacity=".36" d="M702 324L756 378"/><path opacity=".3" d="M756 324L810 378"/><path opacity=".3" d="M810 324L864 378"/><path opacity=".87" d="M918 324L864 378"/><path opacity=".9" d="M918 324L972 378"/><path opacity=".42" d="M1026 324L972 378"/><path opacity=".12" d="M1026 324L1080 378"/><path opacity=".57" d="M1080 324L1134 378"/><path opacity=".72" d="M1134 324L1188 378"/><path opacity=".17" d="M1188 324L1242 378"/><path opacity=".71" d="M1296 324L1242 378"/><path opacity=".21" d="M1296 324L1350 378"/><path opacity=".38" d="M1350 324L1404 378"/><path opacity=".08" d="M1458 324L1404 378"/><path opacity=".61" d="M0 378L54 432"/><path opacity=".75" d="M54 378L108 432"/><path opacity=".59" d="M108 378L162 432"/><path opacity=".09" d="M216 378L162 432"/><path opacity=".32" d="M270 378L216 432"/><path d="M270 378L324 432"/><path opacity=".75" d="M378 378L324 432"/><path opacity=".85" d="M378 378L432 432"/><path opacity=".35" d="M486 378L432 432"/><path opacity=".87" d="M486 378L540 432"/><path opacity=".1" d="M540 378L594 432"/><path opacity=".4" d="M648 378L594 432"/><path opacity=".77" d="M648 378L702 432"/><path opacity=".22" d="M756 378L702 432"/><path opacity=".91" d="M810 378L756 432"/><path opacity=".52" d="M864 378L810 432"/><path opacity=".73" d="M918 378L864 432"/><path opacity=".07" d="M918 378L972 432"/><path opacity=".18" d="M1026 378L972 432"/><path opacity=".53" d="M1026 378L1080 432"/><path opacity=".86" d="M1080 378L1134 432"/><path opacity=".59" d="M1134 378L1188 432"/><path opacity=".87" d="M1188 378L1242 432"/><path opacity=".43" d="M1296 378L1242 432"/><path opacity=".19" d="M1296 378L1350 432"/><path opacity=".78" d="M1350 378L1404 432"/><path opacity=".43" d="M1458 378L1404 432"/><path opacity=".88" d="M0 432L54 486"/><path opacity=".42" d="M108 432L54 486"/><path opacity=".48" d="M162 432L108 486"/><path opacity=".99" d="M162 432L216 486"/><path opacity=".12" d="M216 432L270 486"/><path opacity=".55" d="M270 432L324 486"/><path opacity=".99" d="M324 432L378 486"/><path opacity=".41" d="M378 432L432 486"/><path opacity=".99" d="M432 432L486 486"/><path opacity=".67" d="M486 432L540 486"/><path opacity=".47" d="M594 432L540 486"/><path opacity=".81" d="M648 432L594 486"/><path opacity=".31" d="M648 432L702 486"/><path opacity=".22" d="M756 432L702 486"/><path opacity=".33" d="M756 432L810 486"/><path opacity=".5" d="M810 432L864 486"/><path opacity=".43" d="M864 432L918 486"/><path opacity=".29" d="M918 432L972 486"/><path opacity=".36" d="M972 432L1026 486"/><path opacity=".65" d="M1026 432L1080 486"/><path opacity=".28" d="M1080 432L1134 486"/><path opacity=".58" d="M1134 432L1188 486"/><path opacity=".35" d="M1242 432L1188 486"/><path opacity=".25" d="M1242 432L1296 486"/><path opacity=".62" d="M1296 432L1350 486"/><path opacity=".11" d="M1404 432L1350 486"/><path opacity=".65" d="M1404 432L1458 486"/><path opacity=".4" d="M0 486L54 540"/><path opacity=".9" d="M54 486L108 540"/><path opacity=".62" d="M108 486L162 540"/><path opacity=".44" d="M216 486L162 540"/><path opacity=".34" d="M216 486L270 540"/><path opacity=".72" d="M270 486L324 540"/><path opacity=".32" d="M378 486L324 540"/><path opacity=".08" d="M432 486L378 540"/><path opacity=".33" d="M486 486L432 540"/><path opacity=".39" d="M486 486L540 540"/><path opacity=".45" d="M594 486L540 540"/><path opacity=".45" d="M648 486L594 540"/><path opacity=".94" d="M648 486L702 540"/><path opacity=".72" d="M702 486L756 540"/><path opacity=".22" d="M756 486L810 540"/><path opacity=".85" d="M864 486L810 540"/><path opacity=".5" d="M864 486L918 540"/><path opacity=".09" d="M972 486L918 540"/><path opacity=".82" d="M1026 486L972 540"/><path opacity=".09" d="M1080 486L1026 540"/><path opacity=".52" d="M1080 486L1134 540"/><path opacity=".66" d="M1134 486L1188 540"/><path opacity=".57" d="M1188 486L1242 540"/><path opacity=".36" d="M1242 486L1296 540"/><path opacity=".63" d="M1296 486L1350 540"/><path opacity=".86" d="M1350 486L1404 540"/><path opacity=".18" d="M1458 486L1404 540"/><path opacity=".55" d="M54 540L0 594"/><path opacity=".11" d="M108 540L54 594"/><path opacity=".73" d="M108 540L162 594"/><path opacity=".24" d="M162 540L216 594"/><path opacity=".41" d="M270 540L216 594"/><path opacity=".33" d="M270 540L324 594"/><path opacity=".28" d="M378 540L324 594"/><path opacity=".8" d="M432 540L378 594"/><path opacity=".55" d="M486 540L432 594"/><path opacity=".34" d="M486 540L540 594"/><path opacity=".58" d="M540 540L594 594"/><path opacity=".65" d="M594 540L648 594"/><path opacity=".24" d="M648 540L702 594"/><path opacity=".85" d="M756 540L702 594"/><path opacity=".11" d="M810 540L756 594"/><path opacity=".24" d="M864 540L810 594"/><path opacity=".61" d="M918 540L864 594"/><path opacity=".54" d="M972 540L918 594"/><path opacity=".98" d="M1026 540L972 594"/><path opacity=".98" d="M1080 540L1026 594"/><path opacity=".67" d="M1080 540L1134 594"/><path opacity=".35" d="M1188 540L1134 594"/><path opacity=".48" d="M1242 540L1188 594"/><path opacity=".55" d="M1242 540L1296 594"/><path opacity=".98" d="M1296 540L1350 594"/><path opacity=".5" d="M1350 540L1404 594"/><path opacity=".38" d="M1404 540L1458 594"/><path opacity=".42" d="M0 594L54 648"/><path opacity=".69" d="M108 594L54 648"/><path opacity=".63" d="M108 594L162 648"/><path opacity=".47" d="M216 594L162 648"/><path opacity=".63" d="M216 594L270 648"/><path opacity=".54" d="M324 594L270 648"/><path opacity=".7" d="M378 594L324 648"/><path opacity=".9" d="M432 594L378 648"/><path opacity=".17" d="M432 594L486 648"/><path opacity=".3" d="M486 594L540 648"/><path opacity=".9" d="M594 594L540 648"/><path opacity=".66" d="M594 594L648 648"/><path opacity=".61" d="M648 594L702 648"/><path opacity=".51" d="M756 594L702 648"/><path opacity=".31" d="M810 594L756 648"/><path opacity=".16" d="M810 594L864 648"/><path opacity=".83" d="M918 594L864 648"/><path opacity=".93" d="M918 594L972 648"/><path opacity=".23" d="M972 594L1026 648"/><path opacity=".8" d="M1080 594L1026 648"/><path opacity=".36" d="M1080 594L1134 648"/><path opacity=".18" d="M1134 594L1188 648"/><path opacity=".86" d="M1242 594L1188 648"/><path opacity=".92" d="M1242 594L1296 648"/><path opacity=".58" d="M1296 594L1350 648"/><path opacity=".59" d="M1350 594L1404 648"/><path opacity=".62" d="M1404 594L1458 648"/><path opacity=".58" d="M0 648L54 702"/><path opacity=".61" d="M54 648L108 702"/><path opacity=".43" d="M108 648L162 702"/><path opacity=".23" d="M162 648L216 702"/><path opacity=".39" d="M270 648L216 702"/><path opacity=".9" d="M324 648L270 702"/><path opacity=".49" d="M378 648L324 702"/><path opacity=".96" d="M432 648L378 702"/><path opacity=".49" d="M486 648L432 702"/><path opacity=".66" d="M540 648L486 702"/><path opacity=".9" d="M594 648L540 702"/><path opacity=".2" d="M648 648L594 702"/><path opacity=".91" d="M648 648L702 702"/><path opacity=".68" d="M756 648L702 702"/><path opacity=".83" d="M756 648L810 702"/><path opacity=".15" d="M864 648L810 702"/><path opacity=".5" d="M918 648L864 702"/><path opacity=".3" d="M972 648L918 702"/><path opacity=".57" d="M972 648L1026 702"/><path opacity=".2" d="M1080 648L1026 702"/><path opacity=".1" d="M1080 648L1134 702"/><path opacity=".6" d="M1188 648L1134 702"/><path opacity=".72" d="M1188 648L1242 702"/><path opacity=".84" d="M1296 648L1242 702"/><path opacity=".48" d="M1296 648L1350 702"/><path opacity=".81" d="M1404 648L1350 702"/><path opacity=".19" d="M1404 648L1458 702"/><path opacity=".44" d="M0 702L54 756"/><path opacity=".35" d="M108 702L54 756"/><path opacity=".47" d="M108 702L162 756"/><path opacity=".76" d="M162 702L216 756"/><path opacity=".9" d="M216 702L270 756"/><path opacity=".14" d="M270 702L324 756"/><path opacity=".46" d="M324 702L378 756"/><path opacity=".45" d="M432 702L378 756"/><path opacity=".98" d="M486 702L432 756"/><path opacity=".51" d="M540 702L486 756"/><path opacity=".47" d="M540 702L594 756"/><path opacity=".15" d="M648 702L594 756"/><path opacity=".91" d="M648 702L702 756"/><path opacity=".96" d="M756 702L702 756"/><path opacity=".98" d="M756 702L810 756"/><path opacity=".62" d="M864 702L810 756"/><path opacity=".67" d="M864 702L918 756"/><path opacity=".07" d="M972 702L918 756"/><path opacity=".52" d="M1026 702L972 756"/><path opacity=".09" d="M1026 702L1080 756"/><path opacity=".48" d="M1134 702L1080 756"/><path opacity=".69" d="M1188 702L1134 756"/><path opacity=".81" d="M1188 702L1242 756"/><path opacity=".43" d="M1242 702L1296 756"/><path opacity=".92" d="M1296 702L1350 756"/><path opacity=".15" d="M1350 702L1404 756"/><path opacity=".3" d="M1458 702L1404 756"/><path opacity=".18" d="M0 756L54 810"/><path opacity=".15" d="M108 756L54 810"/><path opacity=".54" d="M162 756L108 810"/><path opacity=".35" d="M216 756L162 810"/><path opacity=".57" d="M270 756L216 810"/><path opacity=".7" d="M270 756L324 810"/><path opacity=".13" d="M324 756L378 810"/><path opacity=".97" d="M432 756L378 810"/><path opacity=".72" d="M486 756L432 810"/><path opacity=".62" d="M486 756L540 810"/><path opacity=".15" d="M540 756L594 810"/><path opacity=".5" d="M648 756L594 810"/><path opacity=".13" d="M702 756L648 810"/><path opacity=".51" d="M756 756L702 810"/><path opacity=".46" d="M810 756L756 810"/><path opacity=".95" d="M810 756L864 810"/><path opacity=".82" d="M864 756L918 810"/><path opacity=".84" d="M918 756L972 810"/><path opacity=".31" d="M1026 756L972 810"/><path opacity=".22" d="M1026 756L1080 810"/><path opacity=".34" d="M1080 756L1134 810"/><path opacity=".57" d="M1134 756L1188 810"/><path opacity=".11" d="M1188 756L1242 810"/><path opacity=".55" d="M1242 756L1296 810"/><path opacity=".8" d="M1296 756L1350 810"/><path opacity=".34" d="M1404 756L1350 810"/><path opacity=".25" d="M1404 756L1458 810"/></g></svg>